<svg width="24" height="24" viewBox="0 0 24 24" fill="none" xmlns="http://www.w3.org/2000/svg">
<path d="M11.5378 16H17.0703V5.6C17.0703 5.44087 17.0103 5.28826 16.9034 5.17574C16.7965 5.06321 16.6516 5 16.5004 5H6.15729C5.60501 5 5.15729 5.44772 5.15729 6V6.78084M6.82277 16H5.64018C5.56534 16 5.49124 15.9845 5.4221 15.9543C5.35296 15.9242 5.29014 15.88 5.23722 15.8243C5.18431 15.7685 5.14233 15.7024 5.11369 15.6296C5.08505 15.5568 5.07031 15.4788 5.07031 15.4V13.5741" stroke="#EC635A" stroke-linecap="round"/>
<path d="M3 9L10 9" stroke="#EC635A" stroke-linecap="round" stroke-linejoin="round"/>
<path d="M3.82324 11.6182L6.82324 11.6182" stroke="#EC635A" stroke-linecap="round" stroke-linejoin="round"/>
<path d="M1 12L2 12" stroke="#EC635A" stroke-linecap="round" stroke-linejoin="round"/>
<path d="M17.0242 8L19.7513 8.05533C19.8604 8.05536 19.9672 8.08877 20.0587 8.15151C20.1502 8.21425 20.2225 8.30365 20.2669 8.40887L21.9511 12.409C21.9832 12.485 21.9998 12.5672 22 12.6503V15.4041C22 15.4824 21.9854 15.5599 21.957 15.6322C21.9287 15.7045 21.8871 15.7701 21.8347 15.8255C21.7822 15.8808 21.72 15.9247 21.6515 15.9546C21.583 15.9846 21.5096 16 21.4355 16L19.7356 15.9447M15 15.9447H15.9409" stroke="#EC635A" stroke-linecap="round"/>
<circle cx="9.5" cy="15.5" r="2.5" fill="white" stroke="#EC635A"/>
<circle cx="17.5" cy="15.5" r="2.5" fill="white" stroke="#EC635A"/>
</svg>
